<svg width="28" height="25" viewBox="0 0 28 25" fill="none" xmlns="http://www.w3.org/2000/svg">
<path d="M26.7292 13.474L23.3412 6.21695C23.2927 6.11771 23.2149 6.03575 23.1183 5.98211C23.0217 5.92846 22.9111 5.90572 22.8012 5.91695H19.9202C19.761 5.91695 19.6084 5.98017 19.4959 6.09269C19.3834 6.20521 19.3202 6.35782 19.3202 6.51695C19.3202 6.67608 19.3834 6.82869 19.4959 6.94121C19.6084 7.05373 19.761 7.11695 19.9202 7.11695H22.4092L25.1982 13.1169H21.7792C21.0202 13.1129 20.2763 13.3288 19.6374 13.7385C18.9985 14.1483 18.492 14.7344 18.1792 15.4259C17.9524 15.9018 17.5954 16.3036 17.1495 16.5848C16.7037 16.8661 16.1873 17.0152 15.6602 17.015H12.1842C11.6567 17.0149 11.1401 16.8654 10.6942 16.5836C10.2484 16.3018 9.89155 15.8994 9.66517 15.423C9.35235 14.7314 8.84586 14.1453 8.20698 13.7355C7.56809 13.3258 6.82417 13.1099 6.06517 13.1139H2.70817L6.00817 7.11395H7.92917C8.0883 7.11395 8.24092 7.05074 8.35344 6.93821C8.46596 6.82569 8.52917 6.67308 8.52917 6.51395C8.52917 6.35482 8.46596 6.20221 8.35344 6.08969C8.24092 5.97717 8.0883 5.91395 7.92917 5.91395H5.64717C5.54091 5.90388 5.43396 5.92385 5.33849 5.97159C5.24302 6.01932 5.16288 6.0929 5.10717 6.18395L1.14917 13.444C1.07974 13.5055 1.03675 13.5915 1.02917 13.6839V21.151C1.05217 21.9601 1.38591 22.7294 1.96112 23.299C2.53632 23.8686 3.3088 24.1948 4.11817 24.2099H23.7292C24.5386 24.1951 25.3112 23.869 25.8865 23.2993C26.4618 22.7296 26.7954 21.9602 26.8182 21.151V13.6839C26.807 13.6075 26.7764 13.5351 26.7292 13.474ZM25.6192 21.1499C25.5967 21.6409 25.3896 22.1052 25.0393 22.4499C24.689 22.7947 24.2214 22.9943 23.7302 23.009H4.11817C3.6271 22.9944 3.15965 22.7948 2.80939 22.4503C2.45913 22.1058 2.2519 21.6417 2.22917 21.151V14.3139H6.06717C6.5943 14.3137 7.1107 14.4628 7.55654 14.7441C8.00237 15.0253 8.35937 15.4271 8.58617 15.903C8.899 16.5945 9.40549 17.1806 10.0444 17.5904C10.6833 18.0001 11.4272 18.216 12.1862 18.212H15.6642C16.4232 18.216 17.1671 18.0001 17.806 17.5904C18.4449 17.1806 18.9513 16.5945 19.2642 15.903C19.491 15.4271 19.848 15.0253 20.2938 14.7441C20.7396 14.4628 21.2561 14.3137 21.7832 14.3139H25.6212V21.151L25.6192 21.1499Z" fill="#97AABD"/>
<path d="M13.5042 14.6739C13.6061 14.7838 13.7473 14.849 13.897 14.8556C14.0467 14.8621 14.193 14.8095 14.3042 14.7089C14.3162 14.6979 14.3282 14.6859 14.3392 14.6739L18.4172 10.5659C18.5038 10.4504 18.5459 10.3075 18.5357 10.1634C18.5254 10.0193 18.4636 9.88381 18.3614 9.78168C18.2593 9.67956 18.1238 9.6177 17.9797 9.60746C17.8356 9.59722 17.6927 9.63929 17.5772 9.72595L14.5182 12.7849V1.38995C14.5182 1.23082 14.455 1.07821 14.3424 0.965684C14.2299 0.853162 14.0773 0.789948 13.9182 0.789948C13.7591 0.789948 13.6064 0.853162 13.4939 0.965684C13.3814 1.07821 13.3182 1.23082 13.3182 1.38995V12.7839L10.2592 9.72495C10.1436 9.63829 10.0007 9.59622 9.85664 9.60646C9.71258 9.6167 9.57704 9.67856 9.47491 9.78068C9.37279 9.88281 9.31093 10.0183 9.30069 10.1624C9.29045 10.3065 9.33252 10.4494 9.41917 10.5649L13.5042 14.6739Z" fill="#97AABD"/>
<path d="M26.7292 13.474L23.3412 6.21695C23.2927 6.11771 23.2149 6.03575 23.1183 5.98211C23.0217 5.92846 22.9111 5.90572 22.8012 5.91695H19.9202C19.761 5.91695 19.6084 5.98017 19.4959 6.09269C19.3834 6.20521 19.3202 6.35782 19.3202 6.51695C19.3202 6.67608 19.3834 6.82869 19.4959 6.94121C19.6084 7.05373 19.761 7.11695 19.9202 7.11695H22.4092L25.1982 13.1169H21.7792C21.0202 13.1129 20.2763 13.3288 19.6374 13.7385C18.9985 14.1483 18.492 14.7344 18.1792 15.4259C17.9524 15.9018 17.5954 16.3036 17.1495 16.5848C16.7037 16.8661 16.1873 17.0152 15.6602 17.015H12.1842C11.6567 17.0149 11.1401 16.8654 10.6942 16.5836C10.2484 16.3018 9.89155 15.8994 9.66517 15.423C9.35235 14.7314 8.84586 14.1453 8.20698 13.7355C7.56809 13.3258 6.82417 13.1099 6.06517 13.1139H2.70817L6.00817 7.11395H7.92917C8.0883 7.11395 8.24092 7.05074 8.35344 6.93821C8.46596 6.82569 8.52917 6.67308 8.52917 6.51395C8.52917 6.35482 8.46596 6.20221 8.35344 6.08969C8.24092 5.97717 8.0883 5.91395 7.92917 5.91395H5.64717C5.54091 5.90388 5.43396 5.92385 5.33849 5.97159C5.24302 6.01932 5.16288 6.0929 5.10717 6.18395L1.14917 13.444C1.07974 13.5055 1.03675 13.5915 1.02917 13.6839V21.151C1.05217 21.9601 1.38591 22.7294 1.96112 23.299C2.53632 23.8686 3.3088 24.1948 4.11817 24.2099H23.7292C24.5386 24.1951 25.3112 23.869 25.8865 23.2993C26.4618 22.7296 26.7954 21.9602 26.8182 21.151V13.6839C26.807 13.6075 26.7764 13.5351 26.7292 13.474ZM25.6192 21.1499C25.5967 21.6409 25.3896 22.1052 25.0393 22.4499C24.689 22.7947 24.2214 22.9943 23.7302 23.009H4.11817C3.6271 22.9944 3.15965 22.7948 2.80939 22.4503C2.45913 22.1058 2.2519 21.6417 2.22917 21.151V14.3139H6.06717C6.5943 14.3137 7.1107 14.4628 7.55654 14.7441C8.00237 15.0253 8.35937 15.4271 8.58617 15.903C8.899 16.5945 9.40549 17.1806 10.0444 17.5904C10.6833 18.0001 11.4272 18.216 12.1862 18.212H15.6642C16.4232 18.216 17.1671 18.0001 17.806 17.5904C18.4449 17.1806 18.9513 16.5945 19.2642 15.903C19.491 15.4271 19.848 15.0253 20.2938 14.7441C20.7396 14.4628 21.2561 14.3137 21.7832 14.3139H25.6212V21.151L25.6192 21.1499Z" stroke="#97AABD" stroke-width="0.5"/>
<path d="M13.5042 14.6739C13.6061 14.7838 13.7473 14.849 13.897 14.8556C14.0467 14.8621 14.193 14.8095 14.3042 14.7089C14.3162 14.6979 14.3282 14.6859 14.3392 14.6739L18.4172 10.5659C18.5038 10.4504 18.5459 10.3075 18.5357 10.1634C18.5254 10.0193 18.4636 9.88381 18.3614 9.78168C18.2593 9.67956 18.1238 9.6177 17.9797 9.60746C17.8356 9.59722 17.6927 9.63929 17.5772 9.72595L14.5182 12.7849V1.38995C14.5182 1.23082 14.455 1.07821 14.3424 0.965684C14.2299 0.853162 14.0773 0.789948 13.9182 0.789948C13.7591 0.789948 13.6064 0.853162 13.4939 0.965684C13.3814 1.07821 13.3182 1.23082 13.3182 1.38995V12.7839L10.2592 9.72495C10.1436 9.63829 10.0007 9.59622 9.85664 9.60646C9.71258 9.6167 9.57704 9.67856 9.47491 9.78068C9.37279 9.88281 9.31093 10.0183 9.30069 10.1624C9.29045 10.3065 9.33252 10.4494 9.41917 10.5649L13.5042 14.6739Z" stroke="#97AABD" stroke-width="0.5"/>
</svg>
