<svg width="99" height="27" viewBox="0 0 99 27" fill="none" xmlns="http://www.w3.org/2000/svg">
<path opacity="0.5" d="M8.81788 21.453C13.5874 21.453 17.4539 17.5865 17.4539 12.817C17.4539 8.04744 13.5874 4.18097 8.81788 4.18097C4.04835 4.18097 0.181885 8.04744 0.181885 12.817C0.181885 17.5865 4.04835 21.453 8.81788 21.453Z" fill="#FC2121"/>
<path d="M16.3939 22.04V18.601C16.3968 18.1785 16.5666 17.7744 16.8664 17.4767C17.1661 17.179 17.5714 17.012 17.9939 17.012H21.2259C21.6498 17.0116 22.0566 17.1787 22.3579 17.477C22.5064 17.6241 22.6243 17.7991 22.7048 17.9921C22.7853 18.185 22.8268 18.3919 22.8269 18.601V22.039C22.8255 22.2199 22.8602 22.3993 22.9289 22.5667C22.9976 22.734 23.0989 22.8861 23.2269 23.014C23.4874 23.2715 23.8395 23.4154 24.2059 23.414H26.4109C27.4394 23.4172 28.4274 23.0131 29.1589 22.29C29.5194 21.9336 29.8058 21.5093 30.0013 21.0415C30.1968 20.5738 30.2976 20.0719 30.2979 19.565V9.76496C30.2975 9.35634 30.207 8.95283 30.033 8.58313C29.8589 8.21342 29.6055 7.88662 29.2909 7.62596L21.7909 1.68896C21.1571 1.18355 20.3669 0.915009 19.5565 0.929612C18.746 0.944215 17.966 1.24105 17.3509 1.76896L10.0199 7.63596C9.69055 7.88879 9.422 8.21213 9.23391 8.58225C9.04582 8.95238 8.94296 9.35991 8.93286 9.77496V19.561C8.9347 20.0694 9.03667 20.5726 9.23295 21.0416C9.42923 21.5107 9.71599 21.9365 10.0768 22.2948C10.4377 22.653 10.8656 22.9367 11.336 23.1296C11.8065 23.3225 12.3104 23.4208 12.8189 23.419H14.9739C15.3391 23.42 15.69 23.2768 15.9502 23.0204C16.2103 22.764 16.3586 22.4152 16.3629 22.05L16.3939 22.04Z" fill="#FC2121"/>
<path d="M60.3408 8.83895V20.071H57.6048V15.447H53.3488V20.071H50.6128V8.83895H53.3488V13.239H57.6048V8.83895H60.3408ZM66.38 20.199C65.5053 20.199 64.716 20.0123 64.012 19.639C63.3186 19.2656 62.7693 18.7323 62.364 18.039C61.9693 17.3456 61.772 16.535 61.772 15.607C61.772 14.6896 61.9746 13.8843 62.38 13.191C62.7853 12.487 63.34 11.9483 64.044 11.575C64.748 11.2016 65.5373 11.015 66.412 11.015C67.2866 11.015 68.076 11.2016 68.78 11.575C69.484 11.9483 70.0386 12.487 70.444 13.191C70.8493 13.8843 71.052 14.6896 71.052 15.607C71.052 16.5243 70.844 17.335 70.428 18.039C70.0226 18.7323 69.4626 19.2656 68.748 19.639C68.044 20.0123 67.2546 20.199 66.38 20.199ZM66.38 17.831C66.9026 17.831 67.3453 17.639 67.708 17.255C68.0813 16.871 68.268 16.3216 68.268 15.607C68.268 14.8923 68.0866 14.343 67.724 13.959C67.372 13.575 66.9346 13.383 66.412 13.383C65.8786 13.383 65.436 13.575 65.084 13.959C64.732 14.3323 64.556 14.8816 64.556 15.607C64.556 16.3216 64.7266 16.871 65.068 17.255C65.42 17.639 65.8573 17.831 66.38 17.831ZM83.8955 11.047C85.0048 11.047 85.8848 11.383 86.5355 12.055C87.1968 12.727 87.5275 13.6603 87.5275 14.855V20.071H84.8075V15.223C84.8075 14.647 84.6528 14.2043 84.3435 13.895C84.0448 13.575 83.6288 13.415 83.0955 13.415C82.5621 13.415 82.1408 13.575 81.8315 13.895C81.5328 14.2043 81.3835 14.647 81.3835 15.223V20.071H78.6635V15.223C78.6635 14.647 78.5088 14.2043 78.1995 13.895C77.9008 13.575 77.4848 13.415 76.9515 13.415C76.4181 13.415 75.9968 13.575 75.6875 13.895C75.3888 14.2043 75.2395 14.647 75.2395 15.223V20.071H72.5035V11.143H75.2395V12.263C75.5168 11.8896 75.8795 11.5963 76.3275 11.383C76.7755 11.159 77.2821 11.047 77.8475 11.047C78.5195 11.047 79.1168 11.191 79.6395 11.479C80.1728 11.767 80.5888 12.1776 80.8875 12.711C81.1968 12.2203 81.6181 11.8203 82.1515 11.511C82.6848 11.2016 83.2661 11.047 83.8955 11.047ZM97.857 15.463C97.857 15.719 97.841 15.9856 97.809 16.263H91.617C91.6596 16.8176 91.8356 17.2443 92.145 17.543C92.465 17.831 92.8543 17.975 93.313 17.975C93.9956 17.975 94.4703 17.687 94.737 17.111H97.649C97.4996 17.6976 97.2276 18.2256 96.833 18.695C96.449 19.1643 95.9636 19.5323 95.377 19.799C94.7903 20.0656 94.1343 20.199 93.409 20.199C92.5343 20.199 91.7556 20.0123 91.073 19.639C90.3903 19.2656 89.857 18.7323 89.473 18.039C89.089 17.3456 88.897 16.535 88.897 15.607C88.897 14.679 89.0836 13.8683 89.457 13.175C89.841 12.4816 90.3743 11.9483 91.057 11.575C91.7396 11.2016 92.5236 11.015 93.409 11.015C94.273 11.015 95.041 11.1963 95.713 11.559C96.385 11.9216 96.9076 12.439 97.281 13.111C97.665 13.783 97.857 14.567 97.857 15.463ZM95.057 14.743C95.057 14.2736 94.897 13.9003 94.577 13.623C94.257 13.3456 93.857 13.207 93.377 13.207C92.9183 13.207 92.529 13.3403 92.209 13.607C91.8996 13.8736 91.7076 14.2523 91.633 14.743H95.057Z" fill="#FC2121"/>
</svg>
