<svg width="23" height="24" viewBox="0 0 23 24" fill="none" xmlns="http://www.w3.org/2000/svg">
<path d="M8.39386 22.04V18.601C8.39677 18.1785 8.56662 17.7744 8.86636 17.4767C9.16611 17.179 9.57141 17.012 9.99386 17.012H13.2259C13.6498 17.0116 14.0566 17.1787 14.3579 17.477C14.5064 17.6241 14.6243 17.7991 14.7048 17.9921C14.7853 18.185 14.8268 18.3919 14.8269 18.601V22.039C14.8255 22.2199 14.8602 22.3993 14.9289 22.5667C14.9976 22.734 15.0989 22.8861 15.2269 23.014C15.4874 23.2715 15.8395 23.4154 16.2059 23.414H18.4109C19.4394 23.4172 20.4274 23.0131 21.1589 22.29C21.5194 21.9336 21.8058 21.5093 22.0013 21.0415C22.1968 20.5738 22.2976 20.0719 22.2979 19.565V9.76496C22.2975 9.35634 22.207 8.95283 22.033 8.58313C21.8589 8.21342 21.6055 7.88662 21.2909 7.62596L13.7909 1.68896C13.1571 1.18355 12.3669 0.915009 11.5565 0.929612C10.746 0.944215 9.96599 1.24105 9.35086 1.76896L2.01986 7.63596C1.69055 7.88879 1.422 8.21213 1.23391 8.58225C1.04582 8.95238 0.942957 9.35991 0.932861 9.77496L0.932861 19.561C0.934697 20.0694 1.03667 20.5726 1.23295 21.0416C1.42923 21.5107 1.71599 21.9365 2.07684 22.2948C2.43769 22.653 2.86556 22.9367 3.33604 23.1296C3.80652 23.3225 4.31038 23.4208 4.81886 23.419H6.97386C7.33912 23.42 7.69002 23.2768 7.95017 23.0204C8.21032 22.764 8.35864 22.4152 8.36286 22.05L8.39386 22.04Z" fill="#FC2121"/>
</svg>
