<svg width="18" height="23" viewBox="0 0 18 23" fill="none" xmlns="http://www.w3.org/2000/svg">
<path d="M0.818115 18.7329C0.818115 15.7389 4.73412 14.9919 9.31812 14.9919C13.9281 14.9919 17.8181 15.7669 17.8181 18.7589C17.8181 21.7509 13.9021 22.4999 9.31812 22.4999C4.70912 22.4999 0.818115 21.7249 0.818115 18.7329ZM3.69312 6.31994C3.67721 5.56764 3.81042 4.81963 4.08506 4.11907C4.35969 3.41851 4.77032 2.77926 5.29326 2.2382C5.81619 1.69714 6.44108 1.26497 7.13188 0.966627C7.82268 0.668284 8.56571 0.509672 9.31812 0.499939C10.0705 0.509672 10.8136 0.668284 11.5044 0.966627C12.1952 1.26497 12.82 1.69714 13.343 2.2382C13.8659 2.77926 14.2765 3.41851 14.5512 4.11907C14.8258 4.81963 14.959 5.56764 14.9431 6.31994C14.9586 7.07223 14.8251 7.82016 14.5504 8.52066C14.2756 9.22115 13.865 9.86037 13.3422 10.4015C12.8194 10.9427 12.1946 11.375 11.504 11.6737C10.8134 11.9724 10.0705 12.1315 9.31812 12.1419C8.56577 12.1314 7.82294 11.9722 7.13238 11.6735C6.44181 11.3747 5.81715 10.9423 5.29434 10.4012C4.77154 9.86011 4.36092 9.22094 4.08611 8.5205C3.81131 7.82007 3.67775 7.0722 3.69312 6.31994Z" fill="#97AABD"/>
</svg>
